{"title":"ONE FC 33 2015 11 13 Pride Of Lions 720p -={SPARROW}=-","uid":12770666,"size":4506607234,"categoryP":"video","categoryS":"hd___tv_shows","magnet":"?xt=urn:btih:63993a74bb4cddf79283dc6d74bc6401daa8c664&amp;dn=ONE+FC+33+2015+11+13+Pride+Of+Lions+720p+-%3D%7BSPARROW%7D%3D-&amp;tr=udp%3A%2F%2Ftracker.leechers-paradise.org%3A6969&amp;tr=udp%3A%2F%2Fzer0day.ch%3A1337&amp;tr=udp%3A%2F%2Fopen.demonii.com%3A1337&amp;tr=udp%3A%2F%2Ftracker.coppersurfer.tk%3A6969&amp;tr=udp%3A%2F%2Fexodus.desync.com%3A6969","seeders":1,"leechers":0,"uploader":"CenaCme","files":2,"time":1447666003,"description":"FULL SHOW\r\n\r\nFormat: Matroska\r\nFormat version: Version 2\r\nFile size: 4.20 GiB\r\nDuration: 2h 50mn\r\nOverall bit rate: 3 514 Kbps\r\n\r\nVideo\r\nFormat: AVC\r\nFormat/Info: Advanced Video Codec\r\nFormat profile:   \r\nFormat settings, CABAC: Yes\r\nFormat settings, ReFrames: 1 frame\r\nCodec ID: V_MPEG4/ISO/AVC\r\nDuration: 2h 50mn\r\nBit rate: 3 282 Kbps\r\nWidth: 1 280 pixels\r\nHeight: 720 pixels\r\nDisplay aspect ratio: 16:9\r\nFrame rate mode: Variable\r\nFrame rate: 29.970 fps\r\nColor space: YUV\r\nChroma subsampling: 4:2:0\r\nBit depth: 8 bits\r\nScan type: Progressive\r\nBits/(Pixel*Frame): 0.119\r\nStream size: 3.85 GiB (92%)\r\nWriting library: x264 core 129\r\n\r\nAudio\r\nFormat : AC-3\r\nFormat/Info: Audio Coding 3\r\nMode extension: CM (complete main)\r\nCodec ID: A_AC3\r\nDuration: 2h 50mn\r\nBit rate mode: Constant\r\nBit rate: 224 Kbps\r\nChannel(s): 2 channels\r\nChannel positions: Front: L R\r\nSampling rate: 48.0 KHz\r\nBit depth: 16 bits\r\nCompression mode: Lossy\r\nStream size: 274 MiB (6%)\r\n\r\n\r\nThumb sheet:\r\n \nhttp://imgsparrow.co/image/9uM","torrent":{"xt":"urn:btih:63993a74bb4cddf79283dc6d74bc6401daa8c664","amp;dn":"ONE+FC+33+2015+11+13+Pride+Of+Lions+720p+-%3D%7BSPARROW%7D%3D-","amp;tr":["udp%3A%2F%2Ftracker.leechers-paradise.org%3A6969","udp%3A%2F%2Fzer0day.ch%3A1337","udp%3A%2F%2Fopen.demonii.com%3A1337","udp%3A%2F%2Ftracker.coppersurfer.tk%3A6969","udp%3A%2F%2Fexodus.desync.com%3A6969"],"infoHash":"63993a74bb4cddf79283dc6d74bc6401daa8c664","infoHashBuffer":{"type":"Buffer","data":[99,153,58,116,187,76,221,247,146,131,220,109,116,188,100,1,218,168,198,100]},"announce":[],"urlList":[]}}